<?xml version="1.0" encoding="UTF-8" standalone="no"?>
<!DOCTYPE svg PUBLIC "-//W3C//DTD SVG 1.1//EN"
 "http://www.w3.org/Graphics/SVG/1.1/DTD/svg11.dtd">
<!-- Generated by graphviz version 2.40.1 (20161225.0304)
 -->
<!-- Title: dependencies Pages: 1 -->
<svg width="1078pt" height="284pt"
 viewBox="0.00 0.00 1078.00 284.00" xmlns="http://www.w3.org/2000/svg" xmlns:xlink="http://www.w3.org/1999/xlink">
<g id="graph0" class="graph" transform="scale(1 1) rotate(0) translate(4 280)">
<title>dependencies</title>
<polygon fill="#ffffff" stroke="transparent" points="-4,4 -4,-280 1074,-280 1074,4 -4,4"/>
<text text-anchor="start" x="514.0091" y="-42.4" font-family="sans-serif" font-weight="bold" font-size="14.00" fill="#000000">Legend</text>
<polygon fill="#ffffb3" stroke="transparent" points="301,-10 301,-30 321,-30 321,-10 301,-10"/>
<text text-anchor="start" x="324.629" y="-15.4" font-family="sans-serif" font-size="14.00" fill="#000000"> &#160;Declarations</text>
<polygon fill="#8dd3c7" stroke="transparent" points="414,-10 414,-30 434,-30 434,-10 414,-10"/>
<text text-anchor="start" x="437.7251" y="-15.4" font-family="sans-serif" font-size="14.00" fill="#000000"> &#160;Module</text>
<polygon fill="#80b1d3" stroke="transparent" points="500,-10 500,-30 520,-30 520,-10 500,-10"/>
<text text-anchor="start" x="523.7812" y="-15.4" font-family="sans-serif" font-size="14.00" fill="#000000"> &#160;Bootstrap</text>
<polygon fill="#fdb462" stroke="transparent" points="597,-10 597,-30 617,-30 617,-10 597,-10"/>
<text text-anchor="start" x="620.6732" y="-15.4" font-family="sans-serif" font-size="14.00" fill="#000000"> &#160;Providers</text>
<polygon fill="#fb8072" stroke="transparent" points="693,-10 693,-30 713,-30 713,-10 693,-10"/>
<text text-anchor="start" x="716.7258" y="-15.4" font-family="sans-serif" font-size="14.00" fill="#000000"> &#160;Exports</text>
<g id="clust1" class="cluster">
<title>cluster_NgxUtilitarioChatModule</title>
<polygon fill="none" stroke="#000000" stroke-dasharray="1,5" points="8,-70 8,-268 1062,-268 1062,-70 8,-70"/>
</g>
<g id="clust2" class="cluster">
<title>cluster_NgxUtilitarioChatModule_declarations</title>
<polygon fill="none" stroke="#000000" points="16,-78 16,-130 1054,-130 1054,-78 16,-78"/>
</g>
<g id="clust10" class="cluster">
<title>cluster_NgxUtilitarioChatModule_exports</title>
<polygon fill="none" stroke="#000000" points="480,-208 480,-260 608,-260 608,-208 480,-208"/>
</g>
<!-- ChatBusquedaComponent -->
<g id="node1" class="node">
<title>ChatBusquedaComponent</title>
<polygon fill="#ffffb3" stroke="#000000" points="1046.4846,-122 883.5154,-122 883.5154,-86 1046.4846,-86 1046.4846,-122"/>
<text text-anchor="middle" x="965" y="-99.8" font-family="Times,serif" font-size="14.00" fill="#000000">ChatBusquedaComponent</text>
</g>
<!-- NgxUtilitarioChatModule -->
<g id="node7" class="node">
<title>NgxUtilitarioChatModule</title>
<polygon fill="#8dd3c7" stroke="#000000" points="624.9242,-187 621.9242,-191 600.9242,-191 597.9242,-187 463.0758,-187 463.0758,-151 624.9242,-151 624.9242,-187"/>
<text text-anchor="middle" x="544" y="-164.8" font-family="Times,serif" font-size="14.00" fill="#000000">NgxUtilitarioChatModule</text>
</g>
<!-- ChatBusquedaComponent&#45;&gt;NgxUtilitarioChatModule -->
<g id="edge1" class="edge">
<title>ChatBusquedaComponent&#45;&gt;NgxUtilitarioChatModule</title>
<path fill="none" stroke="#000000" d="M965,-122.2843C965,-143.3211 965,-175 965,-175 965,-175 635.173,-175 635.173,-175"/>
<polygon fill="#000000" stroke="#000000" points="635.1731,-171.5001 625.173,-175 635.173,-178.5001 635.1731,-171.5001"/>
</g>
<!-- ChatComponent -->
<g id="node2" class="node">
<title>ChatComponent</title>
<polygon fill="#ffffb3" stroke="#000000" points="865.7744,-122 758.2256,-122 758.2256,-86 865.7744,-86 865.7744,-122"/>
<text text-anchor="middle" x="812" y="-99.8" font-family="Times,serif" font-size="14.00" fill="#000000">ChatComponent</text>
</g>
<!-- ChatComponent&#45;&gt;NgxUtilitarioChatModule -->
<g id="edge2" class="edge">
<title>ChatComponent&#45;&gt;NgxUtilitarioChatModule</title>
<path fill="none" stroke="#000000" d="M812,-122.0225C812,-139.3734 812,-163 812,-163 812,-163 634.7723,-163 634.7723,-163"/>
<polygon fill="#000000" stroke="#000000" points="634.7723,-159.5001 624.7723,-163 634.7722,-166.5001 634.7723,-159.5001"/>
</g>
<!-- ChatConversacionComponent -->
<g id="node3" class="node">
<title>ChatConversacionComponent</title>
<polygon fill="#ffffb3" stroke="#000000" points="740.2506,-122 555.7494,-122 555.7494,-86 740.2506,-86 740.2506,-122"/>
<text text-anchor="middle" x="648" y="-99.8" font-family="Times,serif" font-size="14.00" fill="#000000">ChatConversacionComponent</text>
</g>
<!-- ChatConversacionComponent&#45;&gt;NgxUtilitarioChatModule -->
<g id="edge3" class="edge">
<title>ChatConversacionComponent&#45;&gt;NgxUtilitarioChatModule</title>
<path fill="none" stroke="#000000" d="M590.1683,-122.1061C590.1683,-122.1061 590.1683,-140.991 590.1683,-140.991"/>
<polygon fill="#000000" stroke="#000000" points="586.6684,-140.9909 590.1683,-150.991 593.6684,-140.991 586.6684,-140.9909"/>
</g>
<!-- ChatDetalleAgregarComponent -->
<g id="node4" class="node">
<title>ChatDetalleAgregarComponent</title>
<polygon fill="#ffffb3" stroke="#000000" points="538.0534,-122 343.9466,-122 343.9466,-86 538.0534,-86 538.0534,-122"/>
<text text-anchor="middle" x="441" y="-99.8" font-family="Times,serif" font-size="14.00" fill="#000000">ChatDetalleAgregarComponent</text>
</g>
<!-- ChatDetalleAgregarComponent&#45;&gt;NgxUtilitarioChatModule -->
<g id="edge4" class="edge">
<title>ChatDetalleAgregarComponent&#45;&gt;NgxUtilitarioChatModule</title>
<path fill="none" stroke="#000000" d="M500.6575,-122.1061C500.6575,-122.1061 500.6575,-140.991 500.6575,-140.991"/>
<polygon fill="#000000" stroke="#000000" points="497.1575,-140.9909 500.6575,-150.991 504.1575,-140.991 497.1575,-140.9909"/>
</g>
<!-- ChatDetalleComponent -->
<g id="node5" class="node">
<title>ChatDetalleComponent</title>
<polygon fill="#ffffb3" stroke="#000000" points="326.1965,-122 177.8035,-122 177.8035,-86 326.1965,-86 326.1965,-122"/>
<text text-anchor="middle" x="252" y="-99.8" font-family="Times,serif" font-size="14.00" fill="#000000">ChatDetalleComponent</text>
</g>
<!-- ChatDetalleComponent&#45;&gt;NgxUtilitarioChatModule -->
<g id="edge5" class="edge">
<title>ChatDetalleComponent&#45;&gt;NgxUtilitarioChatModule</title>
<path fill="none" stroke="#000000" d="M252,-122.0225C252,-139.3734 252,-163 252,-163 252,-163 453.0495,-163 453.0495,-163"/>
<polygon fill="#000000" stroke="#000000" points="453.0495,-166.5001 463.0495,-163 453.0495,-159.5001 453.0495,-166.5001"/>
</g>
<!-- ChatListaComponent -->
<g id="node6" class="node">
<title>ChatListaComponent</title>
<polygon fill="#ffffb3" stroke="#000000" points="159.7674,-122 24.2326,-122 24.2326,-86 159.7674,-86 159.7674,-122"/>
<text text-anchor="middle" x="92" y="-99.8" font-family="Times,serif" font-size="14.00" fill="#000000">ChatListaComponent</text>
</g>
<!-- ChatListaComponent&#45;&gt;NgxUtilitarioChatModule -->
<g id="edge6" class="edge">
<title>ChatListaComponent&#45;&gt;NgxUtilitarioChatModule</title>
<path fill="none" stroke="#000000" d="M92,-122.2843C92,-143.3211 92,-175 92,-175 92,-175 453.1915,-175 453.1915,-175"/>
<polygon fill="#000000" stroke="#000000" points="453.1915,-178.5001 463.1915,-175 453.1914,-171.5001 453.1915,-178.5001"/>
</g>
<!-- ChatComponent  -->
<g id="node8" class="node">
<title>ChatComponent </title>
<polygon fill="#fb8072" stroke="#000000" points="599.7745,-252 488.2255,-252 488.2255,-216 599.7745,-216 599.7745,-252"/>
<text text-anchor="middle" x="544" y="-229.8" font-family="Times,serif" font-size="14.00" fill="#000000">ChatComponent </text>
</g>
<!-- NgxUtilitarioChatModule&#45;&gt;ChatComponent  -->
<g id="edge7" class="edge">
<title>NgxUtilitarioChatModule&#45;&gt;ChatComponent </title>
<path fill="none" stroke="#000000" stroke-dasharray="5,2" d="M544,-187.1061C544,-187.1061 544,-205.991 544,-205.991"/>
<polygon fill="#000000" stroke="#000000" points="540.5001,-205.9909 544,-215.991 547.5001,-205.991 540.5001,-205.9909"/>
</g>
</g>
</svg>
