<?xml version="1.0" encoding="UTF-8" standalone="no"?>
<!DOCTYPE svg PUBLIC "-//W3C//DTD SVG 1.1//EN"
 "http://www.w3.org/Graphics/SVG/1.1/DTD/svg11.dtd">
<!-- Generated by graphviz version 2.40.1 (20161225.0304)
 -->
<!-- Title: dependencies Pages: 1 -->
<svg width="1431pt" height="284pt"
 viewBox="0.00 0.00 1431.00 284.00" xmlns="http://www.w3.org/2000/svg" xmlns:xlink="http://www.w3.org/1999/xlink">
<g id="graph0" class="graph" transform="scale(1 1) rotate(0) translate(4 280)">
<title>dependencies</title>
<polygon fill="#ffffff" stroke="transparent" points="-4,4 -4,-280 1427,-280 1427,4 -4,4"/>
<text text-anchor="start" x="690.5091" y="-42.4" font-family="sans-serif" font-weight="bold" font-size="14.00" fill="#000000">Legend</text>
<polygon fill="#ffffb3" stroke="transparent" points="477.5,-10 477.5,-30 497.5,-30 497.5,-10 477.5,-10"/>
<text text-anchor="start" x="501.129" y="-15.4" font-family="sans-serif" font-size="14.00" fill="#000000"> &#160;Declarations</text>
<polygon fill="#8dd3c7" stroke="transparent" points="590.5,-10 590.5,-30 610.5,-30 610.5,-10 590.5,-10"/>
<text text-anchor="start" x="614.2251" y="-15.4" font-family="sans-serif" font-size="14.00" fill="#000000"> &#160;Module</text>
<polygon fill="#80b1d3" stroke="transparent" points="676.5,-10 676.5,-30 696.5,-30 696.5,-10 676.5,-10"/>
<text text-anchor="start" x="700.2812" y="-15.4" font-family="sans-serif" font-size="14.00" fill="#000000"> &#160;Bootstrap</text>
<polygon fill="#fdb462" stroke="transparent" points="773.5,-10 773.5,-30 793.5,-30 793.5,-10 773.5,-10"/>
<text text-anchor="start" x="797.1732" y="-15.4" font-family="sans-serif" font-size="14.00" fill="#000000"> &#160;Providers</text>
<polygon fill="#fb8072" stroke="transparent" points="869.5,-10 869.5,-30 889.5,-30 889.5,-10 869.5,-10"/>
<text text-anchor="start" x="893.2258" y="-15.4" font-family="sans-serif" font-size="14.00" fill="#000000"> &#160;Exports</text>
<g id="clust1" class="cluster">
<title>cluster_AppModule</title>
<polygon fill="none" stroke="#000000" stroke-dasharray="1,5" points="8,-70 8,-268 1415,-268 1415,-70 8,-70"/>
</g>
<g id="clust2" class="cluster">
<title>cluster_AppModule_declarations</title>
<polygon fill="none" stroke="#000000" points="833,-78 833,-130 1407,-130 1407,-78 833,-78"/>
</g>
<g id="clust7" class="cluster">
<title>cluster_AppModule_imports</title>
<polygon fill="none" stroke="#000000" points="16,-78 16,-130 825,-130 825,-78 16,-78"/>
</g>
<g id="clust9" class="cluster">
<title>cluster_AppModule_bootstrap</title>
<polygon fill="none" stroke="#000000" points="691,-208 691,-260 815,-260 815,-208 691,-208"/>
</g>
<!-- AppComponent -->
<g id="node1" class="node">
<title>AppComponent</title>
<polygon fill="#ffffb3" stroke="#000000" points="1398.9399,-122 1293.0601,-122 1293.0601,-86 1398.9399,-86 1398.9399,-122"/>
<text text-anchor="middle" x="1346" y="-99.8" font-family="Times,serif" font-size="14.00" fill="#000000">AppComponent</text>
</g>
<!-- AppModule -->
<g id="node5" class="node">
<title>AppModule</title>
<polygon fill="#8dd3c7" stroke="#000000" points="794.6571,-187 791.6571,-191 770.6571,-191 767.6571,-187 711.3429,-187 711.3429,-151 794.6571,-151 794.6571,-187"/>
<text text-anchor="middle" x="753" y="-164.8" font-family="Times,serif" font-size="14.00" fill="#000000">AppModule</text>
</g>
<!-- AppComponent&#45;&gt;AppModule -->
<g id="edge1" class="edge">
<title>AppComponent&#45;&gt;AppModule</title>
<path fill="none" stroke="#000000" d="M1346,-122.0109C1346,-144.4852 1346,-180 1346,-180 1346,-180 804.6986,-180 804.6986,-180"/>
<polygon fill="#000000" stroke="#000000" points="804.6986,-176.5001 794.6986,-180 804.6986,-183.5001 804.6986,-176.5001"/>
</g>
<!-- ModalComponent -->
<g id="node2" class="node">
<title>ModalComponent</title>
<polygon fill="#ffffb3" stroke="#000000" points="1274.8823,-122 1157.1177,-122 1157.1177,-86 1274.8823,-86 1274.8823,-122"/>
<text text-anchor="middle" x="1216" y="-99.8" font-family="Times,serif" font-size="14.00" fill="#000000">ModalComponent</text>
</g>
<!-- ModalComponent&#45;&gt;AppModule -->
<g id="edge2" class="edge">
<title>ModalComponent&#45;&gt;AppModule</title>
<path fill="none" stroke="#000000" d="M1216,-122.1289C1216,-142.5724 1216,-173 1216,-173 1216,-173 804.9048,-173 804.9048,-173"/>
<polygon fill="#000000" stroke="#000000" points="804.9048,-169.5001 794.9048,-173 804.9047,-176.5001 804.9048,-169.5001"/>
</g>
<!-- NumberToArrayPipe -->
<g id="node3" class="node">
<title>NumberToArrayPipe</title>
<polygon fill="#ffffb3" stroke="#000000" points="1139.4552,-122 1004.5448,-122 1004.5448,-86 1139.4552,-86 1139.4552,-122"/>
<text text-anchor="middle" x="1072" y="-99.8" font-family="Times,serif" font-size="14.00" fill="#000000">NumberToArrayPipe</text>
</g>
<!-- NumberToArrayPipe&#45;&gt;AppModule -->
<g id="edge3" class="edge">
<title>NumberToArrayPipe&#45;&gt;AppModule</title>
<path fill="none" stroke="#000000" d="M1072,-122.2667C1072,-140.5552 1072,-166 1072,-166 1072,-166 804.7037,-166 804.7037,-166"/>
<polygon fill="#000000" stroke="#000000" points="804.7037,-162.5001 794.7037,-166 804.7036,-169.5001 804.7037,-162.5001"/>
</g>
<!-- RepeatIconComponent -->
<g id="node4" class="node">
<title>RepeatIconComponent</title>
<polygon fill="#ffffb3" stroke="#000000" points="986.5786,-122 841.4214,-122 841.4214,-86 986.5786,-86 986.5786,-122"/>
<text text-anchor="middle" x="914" y="-99.8" font-family="Times,serif" font-size="14.00" fill="#000000">RepeatIconComponent</text>
</g>
<!-- RepeatIconComponent&#45;&gt;AppModule -->
<g id="edge4" class="edge">
<title>RepeatIconComponent&#45;&gt;AppModule</title>
<path fill="none" stroke="#000000" d="M914,-122.0091C914,-138.0494 914,-159 914,-159 914,-159 804.8806,-159 804.8806,-159"/>
<polygon fill="#000000" stroke="#000000" points="804.8806,-155.5001 794.8806,-159 804.8805,-162.5001 804.8806,-155.5001"/>
</g>
<!-- AppComponent  -->
<g id="node11" class="node">
<title>AppComponent </title>
<polygon fill="#80b1d3" stroke="#000000" points="807.439,-252 698.561,-252 698.561,-216 807.439,-216 807.439,-252"/>
<text text-anchor="middle" x="753" y="-229.8" font-family="Times,serif" font-size="14.00" fill="#000000">AppComponent </text>
</g>
<!-- AppModule&#45;&gt;AppComponent  -->
<g id="edge10" class="edge">
<title>AppModule&#45;&gt;AppComponent </title>
<path fill="none" stroke="#000000" stroke-dasharray="1,5" d="M753,-187.1061C753,-187.1061 753,-205.991 753,-205.991"/>
<polygon fill="#000000" stroke="#000000" points="749.5001,-205.9909 753,-215.991 756.5001,-205.991 749.5001,-205.9909"/>
</g>
<!-- AppRoutingModule -->
<g id="node6" class="node">
<title>AppRoutingModule</title>
<polygon fill="#8dd3c7" stroke="#000000" points="817.2744,-122 814.2744,-126 793.2744,-126 790.2744,-122 688.7256,-122 688.7256,-86 817.2744,-86 817.2744,-122"/>
<text text-anchor="middle" x="753" y="-99.8" font-family="Times,serif" font-size="14.00" fill="#000000">AppRoutingModule</text>
</g>
<!-- AppRoutingModule&#45;&gt;AppModule -->
<g id="edge5" class="edge">
<title>AppRoutingModule&#45;&gt;AppModule</title>
<path fill="none" stroke="#000000" d="M753,-122.1061C753,-122.1061 753,-140.991 753,-140.991"/>
<polygon fill="#000000" stroke="#000000" points="749.5001,-140.9909 753,-150.991 756.5001,-140.991 749.5001,-140.9909"/>
</g>
<!-- FormsModule -->
<g id="node7" class="node">
<title>FormsModule</title>
<polygon fill="#8dd3c7" stroke="#000000" points="670.8288,-122 667.8288,-126 646.8288,-126 643.8288,-122 575.1712,-122 575.1712,-86 670.8288,-86 670.8288,-122"/>
<text text-anchor="middle" x="623" y="-99.8" font-family="Times,serif" font-size="14.00" fill="#000000">FormsModule</text>
</g>
<!-- FormsModule&#45;&gt;AppModule -->
<g id="edge6" class="edge">
<title>FormsModule&#45;&gt;AppModule</title>
<path fill="none" stroke="#000000" d="M623,-122.0091C623,-138.0494 623,-159 623,-159 623,-159 701.1516,-159 701.1516,-159"/>
<polygon fill="#000000" stroke="#000000" points="701.1516,-162.5001 711.1516,-159 701.1516,-155.5001 701.1516,-162.5001"/>
</g>
<!-- NgxUtilitarioCardsModule -->
<g id="node8" class="node">
<title>NgxUtilitarioCardsModule</title>
<polygon fill="#8dd3c7" stroke="#000000" points="557.6386,-122 554.6386,-126 533.6386,-126 530.6386,-122 390.3614,-122 390.3614,-86 557.6386,-86 557.6386,-122"/>
<text text-anchor="middle" x="474" y="-99.8" font-family="Times,serif" font-size="14.00" fill="#000000">NgxUtilitarioCardsModule</text>
</g>
<!-- NgxUtilitarioCardsModule&#45;&gt;AppModule -->
<g id="edge7" class="edge">
<title>NgxUtilitarioCardsModule&#45;&gt;AppModule</title>
<path fill="none" stroke="#000000" d="M474,-122.2667C474,-140.5552 474,-166 474,-166 474,-166 701.2309,-166 701.2309,-166"/>
<polygon fill="#000000" stroke="#000000" points="701.2309,-169.5001 711.2309,-166 701.2308,-162.5001 701.2309,-169.5001"/>
</g>
<!-- NgxUtilitarioChatModule -->
<g id="node9" class="node">
<title>NgxUtilitarioChatModule</title>
<polygon fill="#8dd3c7" stroke="#000000" points="371.9242,-122 368.9242,-126 347.9242,-126 344.9242,-122 210.0758,-122 210.0758,-86 371.9242,-86 371.9242,-122"/>
<text text-anchor="middle" x="291" y="-99.8" font-family="Times,serif" font-size="14.00" fill="#000000">NgxUtilitarioChatModule</text>
</g>
<!-- NgxUtilitarioChatModule&#45;&gt;AppModule -->
<g id="edge8" class="edge">
<title>NgxUtilitarioChatModule&#45;&gt;AppModule</title>
<path fill="none" stroke="#000000" d="M291,-122.1289C291,-142.5724 291,-173 291,-173 291,-173 701.1857,-173 701.1857,-173"/>
<polygon fill="#000000" stroke="#000000" points="701.1858,-176.5001 711.1857,-173 701.1857,-169.5001 701.1858,-176.5001"/>
</g>
<!-- NgxUtilitarioMenuModule -->
<g id="node10" class="node">
<title>NgxUtilitarioMenuModule</title>
<polygon fill="#8dd3c7" stroke="#000000" points="191.6414,-122 188.6414,-126 167.6414,-126 164.6414,-122 24.3586,-122 24.3586,-86 191.6414,-86 191.6414,-122"/>
<text text-anchor="middle" x="108" y="-99.8" font-family="Times,serif" font-size="14.00" fill="#000000">NgxUtilitarioMenuModule</text>
</g>
<!-- NgxUtilitarioMenuModule&#45;&gt;AppModule -->
<g id="edge9" class="edge">
<title>NgxUtilitarioMenuModule&#45;&gt;AppModule</title>
<path fill="none" stroke="#000000" d="M108,-122.0109C108,-144.4852 108,-180 108,-180 108,-180 701.1767,-180 701.1767,-180"/>
<polygon fill="#000000" stroke="#000000" points="701.1768,-183.5001 711.1767,-180 701.1767,-176.5001 701.1768,-183.5001"/>
</g>
</g>
</svg>
