<?xml version="1.0" encoding="UTF-8" standalone="no"?>
<!DOCTYPE svg PUBLIC "-//W3C//DTD SVG 1.1//EN"
 "http://www.w3.org/Graphics/SVG/1.1/DTD/svg11.dtd">
<!-- Generated by graphviz version 2.40.1 (20161225.0304)
 -->
<!-- Title: dependencies Pages: 1 -->
<svg width="1765pt" height="284pt"
 viewBox="0.00 0.00 1765.00 284.00" xmlns="http://www.w3.org/2000/svg" xmlns:xlink="http://www.w3.org/1999/xlink">
<g id="graph0" class="graph" transform="scale(1 1) rotate(0) translate(4 280)">
<title>dependencies</title>
<polygon fill="#ffffff" stroke="transparent" points="-4,4 -4,-280 1761,-280 1761,4 -4,4"/>
<text text-anchor="start" x="857.5091" y="-42.4" font-family="sans-serif" font-weight="bold" font-size="14.00" fill="#000000">Legend</text>
<polygon fill="#ffffb3" stroke="transparent" points="644.5,-10 644.5,-30 664.5,-30 664.5,-10 644.5,-10"/>
<text text-anchor="start" x="668.129" y="-15.4" font-family="sans-serif" font-size="14.00" fill="#000000"> &#160;Declarations</text>
<polygon fill="#8dd3c7" stroke="transparent" points="757.5,-10 757.5,-30 777.5,-30 777.5,-10 757.5,-10"/>
<text text-anchor="start" x="781.2251" y="-15.4" font-family="sans-serif" font-size="14.00" fill="#000000"> &#160;Module</text>
<polygon fill="#80b1d3" stroke="transparent" points="843.5,-10 843.5,-30 863.5,-30 863.5,-10 843.5,-10"/>
<text text-anchor="start" x="867.2812" y="-15.4" font-family="sans-serif" font-size="14.00" fill="#000000"> &#160;Bootstrap</text>
<polygon fill="#fdb462" stroke="transparent" points="940.5,-10 940.5,-30 960.5,-30 960.5,-10 940.5,-10"/>
<text text-anchor="start" x="964.1732" y="-15.4" font-family="sans-serif" font-size="14.00" fill="#000000"> &#160;Providers</text>
<polygon fill="#fb8072" stroke="transparent" points="1036.5,-10 1036.5,-30 1056.5,-30 1056.5,-10 1036.5,-10"/>
<text text-anchor="start" x="1060.2258" y="-15.4" font-family="sans-serif" font-size="14.00" fill="#000000"> &#160;Exports</text>
<g id="clust1" class="cluster">
<title>cluster_AppModule</title>
<polygon fill="none" stroke="#000000" stroke-dasharray="1,5" points="8,-70 8,-268 1749,-268 1749,-70 8,-70"/>
</g>
<g id="clust2" class="cluster">
<title>cluster_AppModule_declarations</title>
<polygon fill="none" stroke="#000000" points="647,-78 647,-130 1741,-130 1741,-78 647,-78"/>
</g>
<g id="clust10" class="cluster">
<title>cluster_AppModule_imports</title>
<polygon fill="none" stroke="#000000" points="16,-78 16,-130 639,-130 639,-78 16,-78"/>
</g>
<g id="clust12" class="cluster">
<title>cluster_AppModule_bootstrap</title>
<polygon fill="none" stroke="#000000" points="824,-208 824,-260 948,-260 948,-208 824,-208"/>
</g>
<!-- AppComponent -->
<g id="node1" class="node">
<title>AppComponent</title>
<polygon fill="#ffffb3" stroke="#000000" points="1732.9399,-122 1627.0601,-122 1627.0601,-86 1732.9399,-86 1732.9399,-122"/>
<text text-anchor="middle" x="1680" y="-99.8" font-family="Times,serif" font-size="14.00" fill="#000000">AppComponent</text>
</g>
<!-- AppModule -->
<g id="node8" class="node">
<title>AppModule</title>
<polygon fill="#8dd3c7" stroke="#000000" points="927.6571,-187 924.6571,-191 903.6571,-191 900.6571,-187 844.3429,-187 844.3429,-151 927.6571,-151 927.6571,-187"/>
<text text-anchor="middle" x="886" y="-164.8" font-family="Times,serif" font-size="14.00" fill="#000000">AppModule</text>
</g>
<!-- AppComponent&#45;&gt;AppModule -->
<g id="edge1" class="edge">
<title>AppComponent&#45;&gt;AppModule</title>
<path fill="none" stroke="#000000" d="M1680,-122.2479C1680,-145.0179 1680,-181 1680,-181 1680,-181 937.8492,-181 937.8492,-181"/>
<polygon fill="#000000" stroke="#000000" points="937.8493,-177.5001 927.8492,-181 937.8492,-184.5001 937.8493,-177.5001"/>
</g>
<!-- CardsComponent -->
<g id="node2" class="node">
<title>CardsComponent</title>
<polygon fill="#ffffb3" stroke="#000000" points="1608.9888,-122 1495.0112,-122 1495.0112,-86 1608.9888,-86 1608.9888,-122"/>
<text text-anchor="middle" x="1552" y="-99.8" font-family="Times,serif" font-size="14.00" fill="#000000">CardsComponent</text>
</g>
<!-- CardsComponent&#45;&gt;AppModule -->
<g id="edge2" class="edge">
<title>CardsComponent&#45;&gt;AppModule</title>
<path fill="none" stroke="#000000" d="M1552,-122.2843C1552,-143.3211 1552,-175 1552,-175 1552,-175 937.6613,-175 937.6613,-175"/>
<polygon fill="#000000" stroke="#000000" points="937.6613,-171.5001 927.6613,-175 937.6612,-178.5001 937.6613,-171.5001"/>
</g>
<!-- CardsImgTextComponent -->
<g id="node3" class="node">
<title>CardsImgTextComponent</title>
<polygon fill="#ffffb3" stroke="#000000" points="1477.1979,-122 1314.8021,-122 1314.8021,-86 1477.1979,-86 1477.1979,-122"/>
<text text-anchor="middle" x="1396" y="-99.8" font-family="Times,serif" font-size="14.00" fill="#000000">CardsImgTextComponent</text>
</g>
<!-- CardsImgTextComponent&#45;&gt;AppModule -->
<g id="edge3" class="edge">
<title>CardsImgTextComponent&#45;&gt;AppModule</title>
<path fill="none" stroke="#000000" d="M1396,-122.1061C1396,-141.3391 1396,-169 1396,-169 1396,-169 937.7354,-169 937.7354,-169"/>
<polygon fill="#000000" stroke="#000000" points="937.7355,-165.5001 927.7354,-169 937.7354,-172.5001 937.7355,-165.5001"/>
</g>
<!-- CardsImgTextNdivComponent -->
<g id="node4" class="node">
<title>CardsImgTextNdivComponent</title>
<polygon fill="#ffffb3" stroke="#000000" points="1297.1951,-122 1106.8049,-122 1106.8049,-86 1297.1951,-86 1297.1951,-122"/>
<text text-anchor="middle" x="1202" y="-99.8" font-family="Times,serif" font-size="14.00" fill="#000000">CardsImgTextNdivComponent</text>
</g>
<!-- CardsImgTextNdivComponent&#45;&gt;AppModule -->
<g id="edge4" class="edge">
<title>CardsImgTextNdivComponent&#45;&gt;AppModule</title>
<path fill="none" stroke="#000000" d="M1202,-122.0225C1202,-139.3734 1202,-163 1202,-163 1202,-163 937.9624,-163 937.9624,-163"/>
<polygon fill="#000000" stroke="#000000" points="937.9624,-159.5001 927.9624,-163 937.9623,-166.5001 937.9624,-159.5001"/>
</g>
<!-- ModalComponent -->
<g id="node5" class="node">
<title>ModalComponent</title>
<polygon fill="#ffffb3" stroke="#000000" points="1088.8823,-122 971.1177,-122 971.1177,-86 1088.8823,-86 1088.8823,-122"/>
<text text-anchor="middle" x="1030" y="-99.8" font-family="Times,serif" font-size="14.00" fill="#000000">ModalComponent</text>
</g>
<!-- ModalComponent&#45;&gt;AppModule -->
<g id="edge5" class="edge">
<title>ModalComponent&#45;&gt;AppModule</title>
<path fill="none" stroke="#000000" d="M1030,-122.2396C1030,-137.5706 1030,-157 1030,-157 1030,-157 938.0379,-157 938.0379,-157"/>
<polygon fill="#000000" stroke="#000000" points="938.0379,-153.5001 928.0379,-157 938.0378,-160.5001 938.0379,-153.5001"/>
</g>
<!-- NumberToArrayPipe -->
<g id="node6" class="node">
<title>NumberToArrayPipe</title>
<polygon fill="#ffffb3" stroke="#000000" points="953.4552,-122 818.5448,-122 818.5448,-86 953.4552,-86 953.4552,-122"/>
<text text-anchor="middle" x="886" y="-99.8" font-family="Times,serif" font-size="14.00" fill="#000000">NumberToArrayPipe</text>
</g>
<!-- NumberToArrayPipe&#45;&gt;AppModule -->
<g id="edge6" class="edge">
<title>NumberToArrayPipe&#45;&gt;AppModule</title>
<path fill="none" stroke="#000000" d="M886,-122.1061C886,-122.1061 886,-140.991 886,-140.991"/>
<polygon fill="#000000" stroke="#000000" points="882.5001,-140.9909 886,-150.991 889.5001,-140.991 882.5001,-140.9909"/>
</g>
<!-- RepeatIconComponent -->
<g id="node7" class="node">
<title>RepeatIconComponent</title>
<polygon fill="#ffffb3" stroke="#000000" points="800.5786,-122 655.4214,-122 655.4214,-86 800.5786,-86 800.5786,-122"/>
<text text-anchor="middle" x="728" y="-99.8" font-family="Times,serif" font-size="14.00" fill="#000000">RepeatIconComponent</text>
</g>
<!-- RepeatIconComponent&#45;&gt;AppModule -->
<g id="edge7" class="edge">
<title>RepeatIconComponent&#45;&gt;AppModule</title>
<path fill="none" stroke="#000000" d="M728,-122.2396C728,-137.5706 728,-157 728,-157 728,-157 834.0737,-157 834.0737,-157"/>
<polygon fill="#000000" stroke="#000000" points="834.0738,-160.5001 844.0737,-157 834.0737,-153.5001 834.0738,-160.5001"/>
</g>
<!-- AppComponent  -->
<g id="node13" class="node">
<title>AppComponent </title>
<polygon fill="#80b1d3" stroke="#000000" points="940.439,-252 831.561,-252 831.561,-216 940.439,-216 940.439,-252"/>
<text text-anchor="middle" x="886" y="-229.8" font-family="Times,serif" font-size="14.00" fill="#000000">AppComponent </text>
</g>
<!-- AppModule&#45;&gt;AppComponent  -->
<g id="edge12" class="edge">
<title>AppModule&#45;&gt;AppComponent </title>
<path fill="none" stroke="#000000" stroke-dasharray="1,5" d="M886,-187.1061C886,-187.1061 886,-205.991 886,-205.991"/>
<polygon fill="#000000" stroke="#000000" points="882.5001,-205.9909 886,-215.991 889.5001,-205.991 882.5001,-205.9909"/>
</g>
<!-- AppRoutingModule -->
<g id="node9" class="node">
<title>AppRoutingModule</title>
<polygon fill="#8dd3c7" stroke="#000000" points="631.2744,-122 628.2744,-126 607.2744,-126 604.2744,-122 502.7256,-122 502.7256,-86 631.2744,-86 631.2744,-122"/>
<text text-anchor="middle" x="567" y="-99.8" font-family="Times,serif" font-size="14.00" fill="#000000">AppRoutingModule</text>
</g>
<!-- AppRoutingModule&#45;&gt;AppModule -->
<g id="edge8" class="edge">
<title>AppRoutingModule&#45;&gt;AppModule</title>
<path fill="none" stroke="#000000" d="M567,-122.0225C567,-139.3734 567,-163 567,-163 567,-163 834.2963,-163 834.2963,-163"/>
<polygon fill="#000000" stroke="#000000" points="834.2964,-166.5001 844.2963,-163 834.2963,-159.5001 834.2964,-166.5001"/>
</g>
<!-- FormsModule -->
<g id="node10" class="node">
<title>FormsModule</title>
<polygon fill="#8dd3c7" stroke="#000000" points="484.8288,-122 481.8288,-126 460.8288,-126 457.8288,-122 389.1712,-122 389.1712,-86 484.8288,-86 484.8288,-122"/>
<text text-anchor="middle" x="437" y="-99.8" font-family="Times,serif" font-size="14.00" fill="#000000">FormsModule</text>
</g>
<!-- FormsModule&#45;&gt;AppModule -->
<g id="edge9" class="edge">
<title>FormsModule&#45;&gt;AppModule</title>
<path fill="none" stroke="#000000" d="M437,-122.1061C437,-141.3391 437,-169 437,-169 437,-169 834.1624,-169 834.1624,-169"/>
<polygon fill="#000000" stroke="#000000" points="834.1624,-172.5001 844.1624,-169 834.1623,-165.5001 834.1624,-172.5001"/>
</g>
<!-- NgxUtilitarioChatModule -->
<g id="node11" class="node">
<title>NgxUtilitarioChatModule</title>
<polygon fill="#8dd3c7" stroke="#000000" points="371.9242,-122 368.9242,-126 347.9242,-126 344.9242,-122 210.0758,-122 210.0758,-86 371.9242,-86 371.9242,-122"/>
<text text-anchor="middle" x="291" y="-99.8" font-family="Times,serif" font-size="14.00" fill="#000000">NgxUtilitarioChatModule</text>
</g>
<!-- NgxUtilitarioChatModule&#45;&gt;AppModule -->
<g id="edge10" class="edge">
<title>NgxUtilitarioChatModule&#45;&gt;AppModule</title>
<path fill="none" stroke="#000000" d="M291,-122.2843C291,-143.3211 291,-175 291,-175 291,-175 834.1608,-175 834.1608,-175"/>
<polygon fill="#000000" stroke="#000000" points="834.1608,-178.5001 844.1608,-175 834.1607,-171.5001 834.1608,-178.5001"/>
</g>
<!-- NgxUtilitarioMenuModule -->
<g id="node12" class="node">
<title>NgxUtilitarioMenuModule</title>
<polygon fill="#8dd3c7" stroke="#000000" points="191.6414,-122 188.6414,-126 167.6414,-126 164.6414,-122 24.3586,-122 24.3586,-86 191.6414,-86 191.6414,-122"/>
<text text-anchor="middle" x="108" y="-99.8" font-family="Times,serif" font-size="14.00" fill="#000000">NgxUtilitarioMenuModule</text>
</g>
<!-- NgxUtilitarioMenuModule&#45;&gt;AppModule -->
<g id="edge11" class="edge">
<title>NgxUtilitarioMenuModule&#45;&gt;AppModule</title>
<path fill="none" stroke="#000000" d="M108,-122.2479C108,-145.0179 108,-181 108,-181 108,-181 834.1713,-181 834.1713,-181"/>
<polygon fill="#000000" stroke="#000000" points="834.1714,-184.5001 844.1713,-181 834.1713,-177.5001 834.1714,-184.5001"/>
</g>
</g>
</svg>
