<?xml version="1.0" encoding="UTF-8" standalone="no"?>
<!DOCTYPE svg PUBLIC "-//W3C//DTD SVG 1.1//EN"
 "http://www.w3.org/Graphics/SVG/1.1/DTD/svg11.dtd">
<!-- Generated by graphviz version 2.40.1 (20161225.0304)
 -->
<!-- Title: dependencies Pages: 1 -->
<svg width="2228pt" height="366pt"
 viewBox="0.00 0.00 2228.00 366.00" xmlns="http://www.w3.org/2000/svg" xmlns:xlink="http://www.w3.org/1999/xlink">
<g id="graph0" class="graph" transform="scale(1 1) rotate(0) translate(4 362)">
<title>dependencies</title>
<polygon fill="#ffffff" stroke="transparent" points="-4,4 -4,-362 2224,-362 2224,4 -4,4"/>
<text text-anchor="start" x="1089.0091" y="-42.4" font-family="sans-serif" font-weight="bold" font-size="14.00" fill="#000000">Legend</text>
<polygon fill="#ffffb3" stroke="transparent" points="876,-10 876,-30 896,-30 896,-10 876,-10"/>
<text text-anchor="start" x="899.629" y="-15.4" font-family="sans-serif" font-size="14.00" fill="#000000"> &#160;Declarations</text>
<polygon fill="#8dd3c7" stroke="transparent" points="989,-10 989,-30 1009,-30 1009,-10 989,-10"/>
<text text-anchor="start" x="1012.7251" y="-15.4" font-family="sans-serif" font-size="14.00" fill="#000000"> &#160;Module</text>
<polygon fill="#80b1d3" stroke="transparent" points="1075,-10 1075,-30 1095,-30 1095,-10 1075,-10"/>
<text text-anchor="start" x="1098.7812" y="-15.4" font-family="sans-serif" font-size="14.00" fill="#000000"> &#160;Bootstrap</text>
<polygon fill="#fdb462" stroke="transparent" points="1172,-10 1172,-30 1192,-30 1192,-10 1172,-10"/>
<text text-anchor="start" x="1195.6732" y="-15.4" font-family="sans-serif" font-size="14.00" fill="#000000"> &#160;Providers</text>
<polygon fill="#fb8072" stroke="transparent" points="1268,-10 1268,-30 1288,-30 1288,-10 1268,-10"/>
<text text-anchor="start" x="1291.7258" y="-15.4" font-family="sans-serif" font-size="14.00" fill="#000000"> &#160;Exports</text>
<g id="clust1" class="cluster">
<title>cluster_AppModule</title>
<polygon fill="none" stroke="#000000" stroke-dasharray="1,5" points="182,-146 182,-350 1588,-350 1588,-146 182,-146"/>
</g>
<g id="clust2" class="cluster">
<title>cluster_AppModule_declarations</title>
<polygon fill="none" stroke="#000000" points="190,-154 190,-206 763,-206 763,-154 190,-154"/>
</g>
<g id="clust7" class="cluster">
<title>cluster_AppModule_imports</title>
<polygon fill="none" stroke="#000000" points="771,-154 771,-206 1580,-206 1580,-154 771,-154"/>
</g>
<g id="clust9" class="cluster">
<title>cluster_AppModule_bootstrap</title>
<polygon fill="none" stroke="#000000" points="798,-290 798,-342 922,-342 922,-290 798,-290"/>
</g>
<g id="clust17" class="cluster">
<title>cluster_FormsModule</title>
<polygon fill="none" stroke="#000000" stroke-dasharray="1,5" points="1596,-214 1596,-282 1876,-282 1876,-214 1596,-214"/>
</g>
<g id="clust18" class="cluster">
<title>cluster_FormsModule_declarations</title>
<polygon fill="none" stroke="#000000" points="1742,-222 1742,-274 1868,-274 1868,-222 1742,-222"/>
</g>
<g id="clust21" class="cluster">
<title>cluster_FormsModule_exports</title>
<polygon fill="none" stroke="#000000" points="1604,-222 1604,-274 1734,-274 1734,-222 1604,-222"/>
</g>
<g id="clust30" class="cluster">
<title>cluster_NgxUtilitarioCardsModule</title>
<polygon fill="none" stroke="#000000" stroke-dasharray="1,5" points="1206,-70 1206,-138 1740,-138 1740,-70 1206,-70"/>
</g>
<g id="clust31" class="cluster">
<title>cluster_NgxUtilitarioCardsModule_declarations</title>
<polygon fill="none" stroke="#000000" points="1214,-78 1214,-130 1732,-130 1732,-78 1214,-78"/>
</g>
<g id="clust39" class="cluster">
<title>cluster_NgxUtilitarioChatModule</title>
<polygon fill="none" stroke="#000000" stroke-dasharray="1,5" points="8,-70 8,-138 1198,-138 1198,-70 8,-70"/>
</g>
<g id="clust40" class="cluster">
<title>cluster_NgxUtilitarioChatModule_declarations</title>
<polygon fill="none" stroke="#000000" points="152,-78 152,-130 1190,-130 1190,-78 152,-78"/>
</g>
<g id="clust48" class="cluster">
<title>cluster_NgxUtilitarioChatModule_exports</title>
<polygon fill="none" stroke="#000000" points="16,-78 16,-130 144,-130 144,-78 16,-78"/>
</g>
<g id="clust51" class="cluster">
<title>cluster_NgxUtilitarioDynamicModule</title>
<polygon fill="none" stroke="#000000" stroke-dasharray="1,5" points="1792,-70 1792,-206 2064,-206 2064,-70 1792,-70"/>
</g>
<g id="clust56" class="cluster">
<title>cluster_NgxUtilitarioDynamicModule_providers</title>
<polygon fill="none" stroke="#000000" points="1800,-78 1800,-130 2056,-130 2056,-78 1800,-78"/>
</g>
<g id="clust57" class="cluster">
<title>cluster_NgxUtilitarioMenuModule</title>
<polygon fill="none" stroke="#000000" stroke-dasharray="1,5" points="1884,-214 1884,-282 2212,-282 2212,-214 1884,-214"/>
</g>
<g id="clust58" class="cluster">
<title>cluster_NgxUtilitarioMenuModule_declarations</title>
<polygon fill="none" stroke="#000000" points="2054,-222 2054,-274 2204,-274 2204,-222 2054,-222"/>
</g>
<g id="clust61" class="cluster">
<title>cluster_NgxUtilitarioMenuModule_exports</title>
<polygon fill="none" stroke="#000000" points="1892,-222 1892,-274 2046,-274 2046,-222 1892,-222"/>
</g>
<!-- AppComponent -->
<g id="node1" class="node">
<title>AppComponent</title>
<polygon fill="#ffffb3" stroke="#000000" points="439.9399,-198 334.0601,-198 334.0601,-162 439.9399,-162 439.9399,-198"/>
<text text-anchor="middle" x="387" y="-175.8" font-family="Times,serif" font-size="14.00" fill="#000000">AppComponent</text>
</g>
<!-- AppModule -->
<g id="node5" class="node">
<title>AppModule</title>
<polygon fill="#8dd3c7" stroke="#000000" points="901.6571,-266 898.6571,-270 877.6571,-270 874.6571,-266 818.3429,-266 818.3429,-230 901.6571,-230 901.6571,-266"/>
<text text-anchor="middle" x="860" y="-243.8" font-family="Times,serif" font-size="14.00" fill="#000000">AppModule</text>
</g>
<!-- AppComponent&#45;&gt;AppModule -->
<g id="edge1" class="edge">
<title>AppComponent&#45;&gt;AppModule</title>
<path fill="none" stroke="#000000" d="M387,-198.1686C387,-219.498 387,-252 387,-252 387,-252 808.0244,-252 808.0244,-252"/>
<polygon fill="#000000" stroke="#000000" points="808.0244,-255.5001 818.0244,-252 808.0244,-248.5001 808.0244,-255.5001"/>
</g>
<!-- ModalComponent -->
<g id="node2" class="node">
<title>ModalComponent</title>
<polygon fill="#ffffb3" stroke="#000000" points="315.8823,-198 198.1177,-198 198.1177,-162 315.8823,-162 315.8823,-198"/>
<text text-anchor="middle" x="257" y="-175.8" font-family="Times,serif" font-size="14.00" fill="#000000">ModalComponent</text>
</g>
<!-- ModalComponent&#45;&gt;AppModule -->
<g id="edge2" class="edge">
<title>ModalComponent&#45;&gt;AppModule</title>
<path fill="none" stroke="#000000" d="M257,-198.3228C257,-221.6602 257,-259 257,-259 257,-259 808.077,-259 808.077,-259"/>
<polygon fill="#000000" stroke="#000000" points="808.077,-262.5001 818.077,-259 808.0769,-255.5001 808.077,-262.5001"/>
</g>
<!-- NumberToArrayPipe -->
<g id="node3" class="node">
<title>NumberToArrayPipe</title>
<polygon fill="#ffffb3" stroke="#000000" points="755.4552,-198 620.5448,-198 620.5448,-162 755.4552,-162 755.4552,-198"/>
<text text-anchor="middle" x="688" y="-175.8" font-family="Times,serif" font-size="14.00" fill="#000000">NumberToArrayPipe</text>
</g>
<!-- NumberToArrayPipe&#45;&gt;AppModule -->
<g id="edge3" class="edge">
<title>NumberToArrayPipe&#45;&gt;AppModule</title>
<path fill="none" stroke="#000000" d="M688,-198.0336C688,-215.0597 688,-238 688,-238 688,-238 807.9241,-238 807.9241,-238"/>
<polygon fill="#000000" stroke="#000000" points="807.9241,-241.5001 817.9241,-238 807.924,-234.5001 807.9241,-241.5001"/>
</g>
<!-- RepeatIconComponent -->
<g id="node4" class="node">
<title>RepeatIconComponent</title>
<polygon fill="#ffffb3" stroke="#000000" points="602.5786,-198 457.4214,-198 457.4214,-162 602.5786,-162 602.5786,-198"/>
<text text-anchor="middle" x="530" y="-175.8" font-family="Times,serif" font-size="14.00" fill="#000000">RepeatIconComponent</text>
</g>
<!-- RepeatIconComponent&#45;&gt;AppModule -->
<g id="edge4" class="edge">
<title>RepeatIconComponent&#45;&gt;AppModule</title>
<path fill="none" stroke="#000000" d="M530,-198.1061C530,-217.3391 530,-245 530,-245 530,-245 808.2053,-245 808.2053,-245"/>
<polygon fill="#000000" stroke="#000000" points="808.2053,-248.5001 818.2053,-245 808.2052,-241.5001 808.2053,-248.5001"/>
</g>
<!-- AppComponent  -->
<g id="node11" class="node">
<title>AppComponent </title>
<polygon fill="#80b1d3" stroke="#000000" points="914.439,-334 805.561,-334 805.561,-298 914.439,-298 914.439,-334"/>
<text text-anchor="middle" x="860" y="-311.8" font-family="Times,serif" font-size="14.00" fill="#000000">AppComponent </text>
</g>
<!-- AppModule&#45;&gt;AppComponent  -->
<g id="edge10" class="edge">
<title>AppModule&#45;&gt;AppComponent </title>
<path fill="none" stroke="#000000" stroke-dasharray="1,5" d="M860,-266.2228C860,-266.2228 860,-287.7269 860,-287.7269"/>
<polygon fill="#000000" stroke="#000000" points="856.5001,-287.7269 860,-297.7269 863.5001,-287.727 856.5001,-287.7269"/>
</g>
<!-- AppRoutingModule -->
<g id="node6" class="node">
<title>AppRoutingModule</title>
<polygon fill="#8dd3c7" stroke="#000000" points="1273.2744,-198 1270.2744,-202 1249.2744,-202 1246.2744,-198 1144.7256,-198 1144.7256,-162 1273.2744,-162 1273.2744,-198"/>
<text text-anchor="middle" x="1209" y="-175.8" font-family="Times,serif" font-size="14.00" fill="#000000">AppRoutingModule</text>
</g>
<!-- AppRoutingModule&#45;&gt;AppModule -->
<g id="edge5" class="edge">
<title>AppRoutingModule&#45;&gt;AppModule</title>
<path fill="none" stroke="#000000" d="M1209,-198.2228C1209,-218.3652 1209,-248 1209,-248 1209,-248 911.7509,-248 911.7509,-248"/>
<polygon fill="#000000" stroke="#000000" points="911.7509,-244.5001 901.7509,-248 911.7509,-251.5001 911.7509,-244.5001"/>
</g>
<!-- FormsModule -->
<g id="node7" class="node">
<title>FormsModule</title>
<polygon fill="#8dd3c7" stroke="#000000" points="1386.8288,-198 1383.8288,-202 1362.8288,-202 1359.8288,-198 1291.1712,-198 1291.1712,-162 1386.8288,-162 1386.8288,-198"/>
<text text-anchor="middle" x="1339" y="-175.8" font-family="Times,serif" font-size="14.00" fill="#000000">FormsModule</text>
</g>
<!-- FormsModule&#45;&gt;AppModule -->
<g id="edge6" class="edge">
<title>FormsModule&#45;&gt;AppModule</title>
<path fill="none" stroke="#000000" d="M1315.168,-198.2921C1315.168,-220.2057 1315.168,-254 1315.168,-254 1315.168,-254 912.0052,-254 912.0052,-254"/>
<polygon fill="#000000" stroke="#000000" points="912.0053,-250.5001 902.0052,-254 912.0052,-257.5001 912.0053,-250.5001"/>
</g>
<!-- InputComponent  -->
<g id="node13" class="node">
<title>InputComponent </title>
<polygon fill="#fb8072" stroke="#000000" points="1726.3842,-266 1611.6158,-266 1611.6158,-230 1726.3842,-230 1726.3842,-266"/>
<text text-anchor="middle" x="1669" y="-243.8" font-family="Times,serif" font-size="14.00" fill="#000000">InputComponent </text>
</g>
<!-- FormsModule&#45;&gt;InputComponent  -->
<g id="edge12" class="edge">
<title>FormsModule&#45;&gt;InputComponent </title>
<path fill="none" stroke="#000000" stroke-dasharray="5,2" d="M1362.8321,-198.027C1362.8321,-214.3976 1362.8321,-236 1362.8321,-236 1362.8321,-236 1601.7713,-236 1601.7713,-236"/>
<polygon fill="#000000" stroke="#000000" points="1601.7713,-239.5001 1611.7713,-236 1601.7713,-232.5001 1601.7713,-239.5001"/>
</g>
<!-- NgxUtilitarioCardsModule -->
<g id="node8" class="node">
<title>NgxUtilitarioCardsModule</title>
<polygon fill="#8dd3c7" stroke="#000000" points="1126.6386,-198 1123.6386,-202 1102.6386,-202 1099.6386,-198 959.3614,-198 959.3614,-162 1126.6386,-162 1126.6386,-198"/>
<text text-anchor="middle" x="1043" y="-175.8" font-family="Times,serif" font-size="14.00" fill="#000000">NgxUtilitarioCardsModule</text>
</g>
<!-- NgxUtilitarioCardsModule&#45;&gt;AppModule -->
<g id="edge7" class="edge">
<title>NgxUtilitarioCardsModule&#45;&gt;AppModule</title>
<path fill="none" stroke="#000000" d="M1043,-198.2667C1043,-216.5552 1043,-242 1043,-242 1043,-242 911.9839,-242 911.9839,-242"/>
<polygon fill="#000000" stroke="#000000" points="911.9839,-238.5001 901.9839,-242 911.9839,-245.5001 911.9839,-238.5001"/>
</g>
<!-- NgxUtilitarioChatModule -->
<g id="node9" class="node">
<title>NgxUtilitarioChatModule</title>
<polygon fill="#8dd3c7" stroke="#000000" points="940.9242,-198 937.9242,-202 916.9242,-202 913.9242,-198 779.0758,-198 779.0758,-162 940.9242,-162 940.9242,-198"/>
<text text-anchor="middle" x="860" y="-175.8" font-family="Times,serif" font-size="14.00" fill="#000000">NgxUtilitarioChatModule</text>
</g>
<!-- NgxUtilitarioChatModule&#45;&gt;AppModule -->
<g id="edge8" class="edge">
<title>NgxUtilitarioChatModule&#45;&gt;AppModule</title>
<path fill="none" stroke="#000000" d="M860,-198.2228C860,-198.2228 860,-219.7269 860,-219.7269"/>
<polygon fill="#000000" stroke="#000000" points="856.5001,-219.7269 860,-229.7269 863.5001,-219.727 856.5001,-219.7269"/>
</g>
<!-- ChatComponent  -->
<g id="node23" class="node">
<title>ChatComponent </title>
<polygon fill="#fb8072" stroke="#000000" points="135.7745,-122 24.2255,-122 24.2255,-86 135.7745,-86 135.7745,-122"/>
<text text-anchor="middle" x="80" y="-99.8" font-family="Times,serif" font-size="14.00" fill="#000000">ChatComponent </text>
</g>
<!-- NgxUtilitarioChatModule&#45;&gt;ChatComponent  -->
<g id="edge22" class="edge">
<title>NgxUtilitarioChatModule&#45;&gt;ChatComponent </title>
<path fill="none" stroke="#000000" stroke-dasharray="5,2" d="M791.7446,-161.9445C791.7446,-150.561 791.7446,-138 791.7446,-138 791.7446,-138 80,-138 80,-138 80,-138 80,-132.1944 80,-132.1944"/>
<polygon fill="#000000" stroke="#000000" points="83.5001,-132.1944 80,-122.1944 76.5001,-132.1945 83.5001,-132.1944"/>
</g>
<!-- NgxUtilitarioMenuModule -->
<g id="node10" class="node">
<title>NgxUtilitarioMenuModule</title>
<polygon fill="#8dd3c7" stroke="#000000" points="1571.6414,-198 1568.6414,-202 1547.6414,-202 1544.6414,-198 1404.3586,-198 1404.3586,-162 1571.6414,-162 1571.6414,-198"/>
<text text-anchor="middle" x="1488" y="-175.8" font-family="Times,serif" font-size="14.00" fill="#000000">NgxUtilitarioMenuModule</text>
</g>
<!-- NgxUtilitarioMenuModule&#45;&gt;AppModule -->
<g id="edge9" class="edge">
<title>NgxUtilitarioMenuModule&#45;&gt;AppModule</title>
<path fill="none" stroke="#000000" d="M1460.0598,-198.1532C1460.0598,-221.7566 1460.0598,-260 1460.0598,-260 1460.0598,-260 911.7186,-260 911.7186,-260"/>
<polygon fill="#000000" stroke="#000000" points="911.7187,-256.5001 901.7186,-260 911.7186,-263.5001 911.7187,-256.5001"/>
</g>
<!-- MenuDotComponent  -->
<g id="node27" class="node">
<title>MenuDotComponent </title>
<polygon fill="#fb8072" stroke="#000000" points="2038.4897,-266 1899.5103,-266 1899.5103,-230 2038.4897,-230 2038.4897,-266"/>
<text text-anchor="middle" x="1969" y="-243.8" font-family="Times,serif" font-size="14.00" fill="#000000">MenuDotComponent </text>
</g>
<!-- NgxUtilitarioMenuModule&#45;&gt;MenuDotComponent  -->
<g id="edge25" class="edge">
<title>NgxUtilitarioMenuModule&#45;&gt;MenuDotComponent </title>
<path fill="none" stroke="#000000" stroke-dasharray="5,2" d="M1515.9402,-198.2015C1515.9402,-204.028 1515.9402,-209 1515.9402,-209 1515.9402,-209 1960.4525,-209 1960.4525,-209 1960.4525,-209 1960.4525,-219.8701 1960.4525,-219.8701"/>
<polygon fill="#000000" stroke="#000000" points="1956.9526,-219.8701 1960.4525,-229.8701 1963.9526,-219.8701 1956.9526,-219.8701"/>
</g>
<!-- InputComponent -->
<g id="node12" class="node">
<title>InputComponent</title>
<polygon fill="#ffffb3" stroke="#000000" points="1860.3837,-266 1749.6163,-266 1749.6163,-230 1860.3837,-230 1860.3837,-266"/>
<text text-anchor="middle" x="1805" y="-243.8" font-family="Times,serif" font-size="14.00" fill="#000000">InputComponent</text>
</g>
<!-- InputComponent&#45;&gt;FormsModule -->
<g id="edge11" class="edge">
<title>InputComponent&#45;&gt;FormsModule</title>
<path fill="none" stroke="#000000" d="M1778.5518,-229.793C1778.5518,-224.4451 1778.5518,-220 1778.5518,-220 1778.5518,-220 1339,-220 1339,-220 1339,-220 1339,-208.1274 1339,-208.1274"/>
<polygon fill="#000000" stroke="#000000" points="1342.5001,-208.1274 1339,-198.1274 1335.5001,-208.1275 1342.5001,-208.1274"/>
</g>
<!-- CardsComponent -->
<g id="node14" class="node">
<title>CardsComponent</title>
<polygon fill="#ffffb3" stroke="#000000" points="1335.9888,-122 1222.0112,-122 1222.0112,-86 1335.9888,-86 1335.9888,-122"/>
<text text-anchor="middle" x="1279" y="-99.8" font-family="Times,serif" font-size="14.00" fill="#000000">CardsComponent</text>
</g>
<!-- CardsComponent&#45;&gt;NgxUtilitarioCardsModule -->
<g id="edge13" class="edge">
<title>CardsComponent&#45;&gt;NgxUtilitarioCardsModule</title>
<path fill="none" stroke="#000000" d="M1247.6964,-122.0555C1247.6964,-133.439 1247.6964,-146 1247.6964,-146 1247.6964,-146 1095.1954,-146 1095.1954,-146 1095.1954,-146 1095.1954,-151.8056 1095.1954,-151.8056"/>
<polygon fill="#000000" stroke="#000000" points="1091.6955,-151.8055 1095.1954,-161.8056 1098.6955,-151.8056 1091.6955,-151.8055"/>
</g>
<!-- CardsImgTextComponent -->
<g id="node15" class="node">
<title>CardsImgTextComponent</title>
<polygon fill="#ffffb3" stroke="#000000" points="1724.1979,-122 1561.8021,-122 1561.8021,-86 1724.1979,-86 1724.1979,-122"/>
<text text-anchor="middle" x="1643" y="-99.8" font-family="Times,serif" font-size="14.00" fill="#000000">CardsImgTextComponent</text>
</g>
<!-- CardsImgTextComponent&#45;&gt;NgxUtilitarioCardsModule -->
<g id="edge14" class="edge">
<title>CardsImgTextComponent&#45;&gt;NgxUtilitarioCardsModule</title>
<path fill="none" stroke="#000000" d="M1565.2076,-122.0511C1565.2076,-136.373 1565.2076,-154 1565.2076,-154 1565.2076,-154 1116.2779,-154 1116.2779,-154 1116.2779,-154 1116.2779,-154.7942 1116.2779,-154.7942"/>
<polygon fill="#000000" stroke="#000000" points="1112.778,-151.9421 1116.2779,-161.9421 1119.778,-151.9422 1112.778,-151.9421"/>
</g>
<!-- CardsImgTextNdivComponent -->
<g id="node16" class="node">
<title>CardsImgTextNdivComponent</title>
<polygon fill="#ffffb3" stroke="#000000" points="1544.1951,-122 1353.8049,-122 1353.8049,-86 1544.1951,-86 1544.1951,-122"/>
<text text-anchor="middle" x="1449" y="-99.8" font-family="Times,serif" font-size="14.00" fill="#000000">CardsImgTextNdivComponent</text>
</g>
<!-- CardsImgTextNdivComponent&#45;&gt;NgxUtilitarioCardsModule -->
<g id="edge15" class="edge">
<title>CardsImgTextNdivComponent&#45;&gt;NgxUtilitarioCardsModule</title>
<path fill="none" stroke="#000000" d="M1370.2833,-122.1804C1370.2833,-135.0382 1370.2833,-150 1370.2833,-150 1370.2833,-150 1105.7366,-150 1105.7366,-150 1105.7366,-150 1105.7366,-151.8568 1105.7366,-151.8568"/>
<polygon fill="#000000" stroke="#000000" points="1102.2367,-151.8568 1105.7366,-161.8568 1109.2367,-151.8568 1102.2367,-151.8568"/>
</g>
<!-- ChatBusquedaComponent -->
<g id="node17" class="node">
<title>ChatBusquedaComponent</title>
<polygon fill="#ffffb3" stroke="#000000" points="322.4846,-122 159.5154,-122 159.5154,-86 322.4846,-86 322.4846,-122"/>
<text text-anchor="middle" x="241" y="-99.8" font-family="Times,serif" font-size="14.00" fill="#000000">ChatBusquedaComponent</text>
</g>
<!-- ChatBusquedaComponent&#45;&gt;NgxUtilitarioChatModule -->
<g id="edge16" class="edge">
<title>ChatBusquedaComponent&#45;&gt;NgxUtilitarioChatModule</title>
<path fill="none" stroke="#000000" d="M257,-122.1432C257,-128.4611 257,-134 257,-134 257,-134 804.201,-134 804.201,-134 804.201,-134 804.201,-151.8196 804.201,-151.8196"/>
<polygon fill="#000000" stroke="#000000" points="800.7011,-151.8195 804.201,-161.8196 807.7011,-151.8196 800.7011,-151.8195"/>
</g>
<!-- ChatComponent -->
<g id="node18" class="node">
<title>ChatComponent</title>
<polygon fill="#ffffb3" stroke="#000000" points="1181.7744,-122 1074.2256,-122 1074.2256,-86 1181.7744,-86 1181.7744,-122"/>
<text text-anchor="middle" x="1128" y="-99.8" font-family="Times,serif" font-size="14.00" fill="#000000">ChatComponent</text>
</g>
<!-- ChatComponent&#45;&gt;NgxUtilitarioChatModule -->
<g id="edge17" class="edge">
<title>ChatComponent&#45;&gt;NgxUtilitarioChatModule</title>
<path fill="none" stroke="#000000" d="M1084.6541,-122.1097C1084.6541,-131.897 1084.6541,-142 1084.6541,-142 1084.6541,-142 917.6828,-142 917.6828,-142 917.6828,-142 917.6828,-151.8903 917.6828,-151.8903"/>
<polygon fill="#000000" stroke="#000000" points="914.1829,-151.8903 917.6828,-161.8903 921.1829,-151.8904 914.1829,-151.8903"/>
</g>
<!-- ChatConversacionComponent -->
<g id="node19" class="node">
<title>ChatConversacionComponent</title>
<polygon fill="#ffffb3" stroke="#000000" points="1056.2506,-122 871.7494,-122 871.7494,-86 1056.2506,-86 1056.2506,-122"/>
<text text-anchor="middle" x="964" y="-99.8" font-family="Times,serif" font-size="14.00" fill="#000000">ChatConversacionComponent</text>
</g>
<!-- ChatConversacionComponent&#45;&gt;NgxUtilitarioChatModule -->
<g id="edge18" class="edge">
<title>ChatConversacionComponent&#45;&gt;NgxUtilitarioChatModule</title>
<path fill="none" stroke="#000000" d="M894.6538,-122.0109C894.6538,-122.0109 894.6538,-151.855 894.6538,-151.855"/>
<polygon fill="#000000" stroke="#000000" points="891.1539,-151.8549 894.6538,-161.855 898.1539,-151.855 891.1539,-151.8549"/>
</g>
<!-- ChatDetalleAgregarComponent -->
<g id="node20" class="node">
<title>ChatDetalleAgregarComponent</title>
<polygon fill="#ffffb3" stroke="#000000" points="854.0534,-122 659.9466,-122 659.9466,-86 854.0534,-86 854.0534,-122"/>
<text text-anchor="middle" x="757" y="-99.8" font-family="Times,serif" font-size="14.00" fill="#000000">ChatDetalleAgregarComponent</text>
</g>
<!-- ChatDetalleAgregarComponent&#45;&gt;NgxUtilitarioChatModule -->
<g id="edge19" class="edge">
<title>ChatDetalleAgregarComponent&#45;&gt;NgxUtilitarioChatModule</title>
<path fill="none" stroke="#000000" d="M841.5703,-122.0109C841.5703,-122.0109 841.5703,-151.855 841.5703,-151.855"/>
<polygon fill="#000000" stroke="#000000" points="838.0704,-151.8549 841.5703,-161.855 845.0704,-151.855 838.0704,-151.8549"/>
</g>
<!-- ChatDetalleComponent -->
<g id="node21" class="node">
<title>ChatDetalleComponent</title>
<polygon fill="#ffffb3" stroke="#000000" points="642.1965,-122 493.8035,-122 493.8035,-86 642.1965,-86 642.1965,-122"/>
<text text-anchor="middle" x="568" y="-99.8" font-family="Times,serif" font-size="14.00" fill="#000000">ChatDetalleComponent</text>
</g>
<!-- ChatDetalleComponent&#45;&gt;NgxUtilitarioChatModule -->
<g id="edge20" class="edge">
<title>ChatDetalleComponent&#45;&gt;NgxUtilitarioChatModule</title>
<path fill="none" stroke="#000000" d="M631.3103,-122.1679C631.3103,-124.4478 631.3103,-126 631.3103,-126 631.3103,-126 829.1139,-126 829.1139,-126 829.1139,-126 829.1139,-151.7181 829.1139,-151.7181"/>
<polygon fill="#000000" stroke="#000000" points="825.614,-151.718 829.1139,-161.7181 832.614,-151.7181 825.614,-151.718"/>
</g>
<!-- ChatListaComponent -->
<g id="node22" class="node">
<title>ChatListaComponent</title>
<polygon fill="#ffffb3" stroke="#000000" points="475.7674,-122 340.2326,-122 340.2326,-86 475.7674,-86 475.7674,-122"/>
<text text-anchor="middle" x="408" y="-99.8" font-family="Times,serif" font-size="14.00" fill="#000000">ChatListaComponent</text>
</g>
<!-- ChatListaComponent&#45;&gt;NgxUtilitarioChatModule -->
<g id="edge21" class="edge">
<title>ChatListaComponent&#45;&gt;NgxUtilitarioChatModule</title>
<path fill="none" stroke="#000000" d="M466.6722,-122.0579C466.6722,-126.4945 466.6722,-130 466.6722,-130 466.6722,-130 816.6574,-130 816.6574,-130 816.6574,-130 816.6574,-151.9489 816.6574,-151.9489"/>
<polygon fill="#000000" stroke="#000000" points="813.1575,-151.9488 816.6574,-161.9489 820.1575,-151.9489 813.1575,-151.9488"/>
</g>
<!-- DynamicComponentService -->
<g id="node24" class="node">
<title>DynamicComponentService</title>
<ellipse fill="#fdb462" stroke="#000000" cx="1928" cy="-104" rx="120.4091" ry="18"/>
<text text-anchor="middle" x="1928" y="-99.8" font-family="Times,serif" font-size="14.00" fill="#000000">DynamicComponentService</text>
</g>
<!-- NgxUtilitarioDynamicModule -->
<g id="node25" class="node">
<title>NgxUtilitarioDynamicModule</title>
<polygon fill="#8dd3c7" stroke="#000000" points="2021.299,-198 2018.299,-202 1997.299,-202 1994.299,-198 1834.701,-198 1834.701,-162 2021.299,-162 2021.299,-198"/>
<text text-anchor="middle" x="1928" y="-175.8" font-family="Times,serif" font-size="14.00" fill="#000000">NgxUtilitarioDynamicModule</text>
</g>
<!-- DynamicComponentService&#45;&gt;NgxUtilitarioDynamicModule -->
<g id="edge23" class="edge">
<title>DynamicComponentService&#45;&gt;NgxUtilitarioDynamicModule</title>
<path fill="none" stroke="#000000" d="M1928,-122.0109C1928,-122.0109 1928,-151.855 1928,-151.855"/>
<polygon fill="#000000" stroke="#000000" points="1924.5001,-151.8549 1928,-161.855 1931.5001,-151.855 1924.5001,-151.8549"/>
</g>
<!-- MenuDotComponent -->
<g id="node26" class="node">
<title>MenuDotComponent</title>
<polygon fill="#ffffb3" stroke="#000000" points="2196.4888,-266 2061.5112,-266 2061.5112,-230 2196.4888,-230 2196.4888,-266"/>
<text text-anchor="middle" x="2129" y="-243.8" font-family="Times,serif" font-size="14.00" fill="#000000">MenuDotComponent</text>
</g>
<!-- MenuDotComponent&#45;&gt;NgxUtilitarioMenuModule -->
<g id="edge24" class="edge">
<title>MenuDotComponent&#45;&gt;NgxUtilitarioMenuModule</title>
<path fill="none" stroke="#000000" d="M2129,-229.7872C2129,-203.4889 2129,-158 2129,-158 2129,-158 1568.514,-158 1568.514,-158 1568.514,-158 1568.514,-158.3832 1568.514,-158.3832"/>
<polygon fill="#000000" stroke="#000000" points="1565.0143,-151.832 1568.514,-161.8321 1572.0143,-151.8322 1565.0143,-151.832"/>
</g>
</g>
</svg>
